<svg xmlns="http://www.w3.org/2000/svg" width="108" height="22" viewBox="0 0 108 22" fill="none">
  <path d="M41.0656 13.3051V20.8227H45.3876V13.3051C46.6526 11.3128 51.7639 2.13357 52.2396 1.18261H47.2136C46.429 2.5734 41.0656 13.3051 41.0656 13.3051ZM42.1876 6.88608L39.8102 11.1917C38.6382 9.14711 35.2932 3.28664 34.2208 1.16833H39.2611L42.1876 6.88608Z" fill="#19303D"/>
  <path d="M6.4809 17.3754C6.99235 17.3854 7.50316 17.3344 8.00246 17.2231C8.34289 17.1434 8.66542 17.0007 8.95343 16.8024C9.17963 16.6475 9.355 16.4292 9.45744 16.1747C9.55871 15.9132 9.61032 15.635 9.6096 15.3546C9.60605 15.0374 9.52219 14.7262 9.36589 14.4502C9.20956 14.1741 8.98589 13.9421 8.71568 13.7759C8.11975 13.3639 7.09507 12.9161 5.64166 12.4327C5.00769 12.2091 4.37369 11.9525 3.73971 11.6625C3.12086 11.3842 2.54584 11.0173 2.03272 10.5735C1.52463 10.1269 1.10801 9.58589 0.805946 8.98063C0.470678 8.27014 0.30775 7.49066 0.330475 6.70539C0.317032 5.87306 0.48837 5.0481 0.832113 4.28993C1.16368 3.58009 1.65128 2.9543 2.25857 2.45929C2.92192 1.93157 3.68182 1.53831 4.49575 1.30147C5.45717 1.01806 6.45578 0.881016 7.45803 0.894938C8.59903 0.874218 9.73722 1.0151 10.8387 1.31337C11.6507 1.53909 12.437 1.84821 13.1852 2.23581L11.9277 5.67122C11.3481 5.37593 10.7455 5.12864 10.1256 4.93184C9.3543 4.70298 8.55236 4.59472 7.74807 4.61088C6.70359 4.61088 5.9539 4.75512 5.49902 5.04356C5.27587 5.18242 5.09445 5.37901 4.9739 5.61255C4.85337 5.84609 4.79822 6.10787 4.81432 6.37019C4.79894 6.68851 4.88376 7.00362 5.05682 7.27124C5.2474 7.53624 5.49009 7.75954 5.77004 7.9274C6.10585 8.1381 6.4609 8.31633 6.83038 8.45991C7.23138 8.61852 7.67436 8.78084 8.15938 8.9473C9.16581 9.31986 10.0415 9.68742 10.7864 10.0504C11.4677 10.3687 12.0932 10.7951 12.6384 11.3128C13.129 11.791 13.5066 12.3725 13.7439 13.015C14.0036 13.7802 14.1267 14.5848 14.1077 15.3925C14.1077 17.1994 13.4737 18.6005 12.2057 19.5958C10.9378 20.5913 9.02951 21.0898 6.4809 21.0913C5.7055 21.0965 4.93076 21.0449 4.1629 20.9368C3.5453 20.8497 2.93388 20.7233 2.33228 20.5588C1.86543 20.4318 1.40789 20.2729 0.96286 20.0832C0.58247 19.9145 0.249643 19.7574 0 19.6078L1.22915 16.1437C1.91071 16.5022 2.62783 16.788 3.36882 16.9974C4.38321 17.2693 5.43091 17.3965 6.4809 17.3754Z" fill="#19303D"/>
  <path d="M31.979 1.18005V5.01012H26.1065V20.8391H21.7654V5.01012H15.6387V1.18005H31.979Z" fill="#19303D"/>
  <path d="M70.9379 1.18005V5.01012H65.0775V20.8391H60.7243V5.01012H54.5977V1.18005H70.9379Z" fill="#19303D"/>
  <path d="M82.0906 21.1053C79.0428 21.1053 76.7215 20.2335 75.1271 18.4901C73.5327 16.7467 72.7346 14.2631 72.7331 11.0392C72.7084 9.57983 72.9559 8.12856 73.4629 6.75986C73.9063 5.57483 74.5876 4.49308 75.4648 3.58122C76.3184 2.7129 77.3525 2.04254 78.4935 1.61746C79.7099 1.1633 80.9993 0.936054 82.2974 0.947035C83.0227 0.941959 83.7467 1.00242 84.4609 1.12772C85.0372 1.2325 85.6063 1.37224 86.1656 1.54615C86.5863 1.67783 86.9957 1.8432 87.39 2.04064C87.7158 2.20708 87.9487 2.33783 88.1031 2.43055L86.8859 5.94202C86.2453 5.60181 85.5703 5.33083 84.8722 5.1337C84.0208 4.89861 83.1403 4.78575 82.2571 4.79848C81.6085 4.7993 80.9649 4.91273 80.355 5.1337C79.7302 5.36079 79.1656 5.72846 78.7053 6.20829C78.1937 6.75513 77.8026 7.40303 77.5568 8.11024C77.2464 9.02839 77.0999 9.99424 77.1241 10.9631C77.1159 11.8009 77.2076 12.6364 77.3976 13.4524C77.564 14.1727 77.8773 14.8509 78.3177 15.4446C78.7565 16.0148 79.3277 16.4693 79.9818 16.7689C80.7642 17.1144 81.6137 17.2809 82.4686 17.2563C83.0207 17.2602 83.5722 17.2227 84.1186 17.1445C84.5561 17.0815 84.9897 16.9926 85.4167 16.8783C85.7583 16.792 86.0928 16.6798 86.4176 16.5429C86.7061 16.4116 86.9676 16.2902 87.2022 16.1793L88.3766 19.6551C87.5894 20.1056 86.7425 20.4434 85.8612 20.6584C84.63 20.975 83.3619 21.1253 82.0906 21.1053Z" fill="#19303D"/>
  <path d="M103.404 1.20837H108V20.8746H103.404V12.4465H95.9989V20.8746H91.6553V1.20837H95.9989V8.61405H103.404V1.20837Z" fill="#19303D"/>
</svg>